<?xml version="1.0" standalone="no"?>
<!DOCTYPE svg PUBLIC "-//W3C//DTD SVG 20010904//EN"
 "http://www.w3.org/TR/2001/REC-SVG-20010904/DTD/svg10.dtd">
<svg version="1.0" xmlns="http://www.w3.org/2000/svg"
 width="250.000000pt" height="50.000000pt" viewBox="0 0 250.000000 50.000000"
 preserveAspectRatio="xMidYMid meet">

<g transform="translate(0.000000,50.000000) scale(0.100000,-0.100000)"
fill="#000000" stroke="none">
<path d="M70 375 c0 -76 3 -97 15 -101 20 -8 19 -24 0 -24 -13 0 -15 -12 -13
-67 l3 -68 84 -42 85 -41 55 25 c31 13 70 32 86 42 l30 17 3 177 2 177 -175 0
-175 0 0 -95z m190 55 c0 -5 -7 -10 -15 -10 -8 0 -15 5 -15 10 0 6 7 10 15 10
8 0 15 -4 15 -10z m-110 -20 c0 -5 -4 -10 -10 -10 -5 0 -10 5 -10 10 0 6 5 10
10 10 6 0 10 -4 10 -10z m190 -10 c0 -5 -5 -10 -11 -10 -5 0 -7 5 -4 10 3 6 8
10 11 10 2 0 4 -4 4 -10z m-190 -61 c0 -6 -4 -7 -10 -4 -5 3 -10 11 -10 16 0
6 5 7 10 4 6 -3 10 -11 10 -16z m-45 1 c-3 -5 -10 -10 -16 -10 -5 0 -9 5 -9
10 0 6 7 10 16 10 8 0 12 -4 9 -10z m110 -26 c29 -54 34 -59 46 -47 9 9 6 17
-10 34 -11 13 -21 26 -21 31 0 13 28 9 33 -4 4 -10 7 -10 18 0 19 18 29 15 29
-8 0 -11 7 -20 15 -20 39 0 -17 -99 -57 -101 -7 0 -30 -1 -50 -3 -21 -2 -35 1
-32 6 3 4 -4 20 -15 34 -25 31 -27 52 -6 60 8 4 15 15 15 26 0 24 21 19 35 -8z
m-80 -124 c3 -5 1 -10 -4 -10 -6 0 -11 5 -11 10 0 6 2 10 4 10 3 0 8 -4 11
-10z m29 -75 c11 -8 16 -18 12 -22 -3 -4 -16 3 -29 15 -24 25 -12 29 17 7z
m180 -5 c-11 -11 -38 -23 -60 -26 l-39 -5 45 17 c25 9 49 20 55 25 19 19 19 8
-1 -11z m-109 -20 c3 -5 -3 -10 -14 -10 -12 0 -21 5 -21 10 0 6 6 10 14 10 8
0 18 -4 21 -10z"/>
<path d="M480 380 c0 -38 4 -50 15 -50 8 0 15 7 15 15 0 8 4 15 9 15 5 0 11
-7 15 -15 3 -8 12 -15 20 -15 13 0 13 4 -2 29 -16 28 -15 31 2 50 16 17 16 21
4 21 -9 0 -21 -7 -29 -16 -11 -14 -13 -14 -21 0 -17 30 -28 16 -28 -34z"/>
<path d="M1190 420 c0 -5 7 -10 15 -10 8 0 15 5 15 10 0 6 -7 10 -15 10 -8 0
-15 -4 -15 -10z"/>
<path d="M1460 380 c0 -50 0 -50 33 -50 40 0 57 15 57 52 0 30 -23 48 -64 48
-24 0 -26 -3 -26 -50z m60 15 c15 -18 6 -45 -15 -45 -10 0 -15 10 -15 30 0 33
11 38 30 15z"/>
<path d="M1660 380 c0 -27 5 -50 10 -50 6 0 10 23 10 50 0 28 -4 50 -10 50 -5
0 -10 -22 -10 -50z"/>
<path d="M1970 380 c0 -38 4 -50 15 -50 9 0 15 9 15 23 l1 22 18 -22 c30 -36
41 -28 41 27 0 28 -4 50 -10 50 -5 0 -10 -12 -10 -27 l-1 -28 -24 28 c-35 39
-45 34 -45 -23z"/>
<path d="M2420 420 c0 -5 7 -10 15 -10 8 0 15 5 15 10 0 6 -7 10 -15 10 -8 0
-15 -4 -15 -10z"/>
<path d="M978 408 c-8 -24 7 -73 23 -76 14 -3 18 24 10 81 -2 12 -29 8 -33 -5z"/>
<path d="M595 397 c-27 -20 -16 -61 18 -65 32 -4 37 15 5 21 -20 4 -19 4 5 6
31 1 37 25 8 40 -13 7 -23 6 -36 -2z m30 -17 c3 -5 -1 -10 -10 -10 -9 0 -13 5
-10 10 3 6 8 10 10 10 2 0 7 -4 10 -10z"/>
<path d="M693 402 c-19 -3 -23 -10 -23 -38 0 -19 5 -34 10 -34 6 0 10 11 10
25 0 16 6 25 15 25 9 0 15 -9 15 -25 0 -14 5 -25 10 -25 6 0 10 11 10 25 0 14
5 25 10 25 6 0 10 -11 10 -25 0 -16 6 -25 15 -25 18 0 21 55 4 65 -12 8 -55
11 -86 7z"/>
<path d="M815 397 c-27 -20 -16 -61 18 -65 32 -4 37 15 5 21 -20 4 -19 4 5 6
31 1 37 25 8 40 -13 7 -23 6 -36 -2z m30 -17 c3 -5 -1 -10 -10 -10 -9 0 -13 5
-10 10 3 6 8 10 10 10 2 0 7 -4 10 -10z"/>
<path d="M913 402 c-19 -3 -23 -10 -23 -38 0 -19 5 -34 10 -34 6 0 10 11 10
25 0 16 6 25 15 25 9 0 15 -9 15 -25 0 -14 5 -25 10 -25 15 0 12 67 -2 72 -7
2 -23 2 -35 0z"/>
<path d="M1055 397 c-27 -20 -16 -61 18 -65 32 -4 37 15 5 21 -20 4 -19 4 5 6
31 1 37 25 8 40 -13 7 -23 6 -36 -2z m30 -17 c3 -5 -1 -10 -10 -10 -9 0 -13 5
-10 10 3 6 8 10 10 10 2 0 7 -4 10 -10z"/>
<path d="M1343 402 c-19 -3 -23 -10 -23 -38 0 -19 5 -34 10 -34 6 0 10 11 10
25 0 16 6 25 15 25 9 0 15 -9 15 -25 0 -14 5 -25 10 -25 15 0 12 67 -2 72 -7
2 -23 2 -35 0z"/>
<path d="M1813 402 c-19 -3 -23 -10 -23 -38 0 -19 5 -34 10 -34 6 0 10 11 10
25 0 16 6 25 15 25 9 0 15 -9 15 -25 0 -14 5 -25 10 -25 6 0 10 11 10 25 0 14
5 25 10 25 6 0 10 -11 10 -25 0 -16 6 -25 15 -25 18 0 21 55 4 65 -12 8 -55
11 -86 7z"/>
<path d="M2095 397 c-27 -20 -16 -61 18 -65 32 -4 37 15 5 21 -20 4 -19 4 5 6
31 1 37 25 8 40 -13 7 -23 6 -36 -2z m30 -17 c3 -5 -1 -10 -10 -10 -9 0 -13 5
-10 10 3 6 8 10 10 10 2 0 7 -4 10 -10z"/>
<path d="M2186 398 c-9 -5 -16 -17 -16 -27 0 -23 25 -45 41 -35 8 5 9 3 5 -5
-5 -7 -14 -10 -22 -7 -7 3 -16 1 -19 -4 -4 -6 9 -10 28 -10 38 0 47 12 47 60
0 21 -5 29 -24 32 -13 3 -31 1 -40 -4z m29 -38 c-5 -8 -11 -8 -17 -2 -6 6 -7
16 -3 22 5 8 11 8 17 2 6 -6 7 -16 3 -22z"/>
<path d="M2285 397 c-27 -20 -16 -61 18 -65 32 -4 37 15 5 21 -20 4 -19 4 5 6
31 1 37 25 8 40 -13 7 -23 6 -36 -2z m30 -17 c3 -5 -1 -10 -10 -10 -9 0 -13 5
-10 10 3 6 8 10 10 10 2 0 7 -4 10 -10z"/>
<path d="M1130 365 c0 -40 15 -47 24 -10 4 14 11 25 16 25 6 0 10 5 10 10 0 6
-11 10 -25 10 -22 0 -25 -4 -25 -35z"/>
<path d="M1190 365 c0 -19 5 -35 10 -35 6 0 10 16 10 35 0 19 -4 35 -10 35 -5
0 -10 -16 -10 -35z"/>
<path d="M1245 390 c4 -6 10 -8 15 -5 5 3 11 1 15 -5 3 -5 -3 -10 -14 -10 -14
0 -21 -6 -21 -20 0 -16 7 -20 35 -20 28 0 35 4 35 19 0 37 -12 51 -42 51 -17
0 -27 -4 -23 -10z m35 -40 c0 -5 -4 -10 -10 -10 -5 0 -10 5 -10 10 0 6 5 10
10 10 6 0 10 -4 10 -10z"/>
<path d="M1575 390 c4 -6 10 -8 15 -5 5 3 11 1 15 -5 3 -5 -3 -10 -14 -10 -14
0 -21 -6 -21 -20 0 -16 7 -20 35 -20 28 0 35 4 35 19 0 37 -12 51 -42 51 -17
0 -27 -4 -23 -10z m35 -40 c0 -5 -4 -10 -10 -10 -5 0 -10 5 -10 10 0 6 5 10
10 10 6 0 10 -4 10 -10z"/>
<path d="M1705 390 c4 -6 10 -8 15 -5 5 3 11 1 15 -5 3 -5 -3 -10 -14 -10 -14
0 -21 -6 -21 -20 0 -16 7 -20 35 -20 28 0 35 4 35 19 0 37 -12 51 -42 51 -17
0 -27 -4 -23 -10z m35 -40 c0 -5 -4 -10 -10 -10 -5 0 -10 5 -10 10 0 6 5 10
10 10 6 0 10 -4 10 -10z"/>
<path d="M2360 365 c0 -40 15 -47 24 -10 4 14 11 25 16 25 6 0 10 5 10 10 0 6
-11 10 -25 10 -22 0 -25 -4 -25 -35z"/>
<path d="M2420 365 c0 -19 5 -35 10 -35 6 0 10 16 10 35 0 19 -4 35 -10 35 -5
0 -10 -16 -10 -35z"/>
<path d="M480 220 c0 -38 4 -50 15 -50 8 0 15 7 15 17 0 15 1 15 18 0 24 -22
50 -24 33 -3 -9 11 -9 20 -2 35 14 26 -10 51 -50 51 -28 0 -29 -1 -29 -50z
m58 12 c2 -7 -3 -12 -12 -12 -9 0 -16 7 -16 16 0 17 22 14 28 -4z"/>
<path d="M860 219 l0 -50 38 3 c31 2 38 7 40 27 4 28 -21 53 -44 44 -8 -3 -14
1 -14 11 0 9 -4 16 -10 16 -5 0 -10 -23 -10 -51z m55 -8 c7 -12 -12 -24 -25
-16 -11 7 -4 25 10 25 5 0 11 -4 15 -9z"/>
<path d="M960 220 c0 -27 5 -50 10 -50 6 0 10 23 10 50 0 28 -4 50 -10 50 -5
0 -10 -22 -10 -50z"/>
<path d="M1000 260 c0 -5 7 -10 15 -10 8 0 15 5 15 10 0 6 -7 10 -15 10 -8 0
-15 -4 -15 -10z"/>
<path d="M1050 220 c0 -47 11 -65 24 -37 5 10 7 10 12 0 3 -7 12 -13 20 -13
12 0 12 4 4 21 -9 15 -8 24 2 36 12 14 10 16 -14 9 -24 -5 -28 -3 -28 14 0 11
-4 20 -10 20 -5 0 -10 -22 -10 -50z"/>
<path d="M1180 220 c0 -38 4 -50 15 -50 11 0 15 12 15 50 0 38 -4 50 -15 50
-11 0 -15 -12 -15 -50z"/>
<path d="M1370 253 c0 -9 -3 -13 -6 -10 -4 3 -15 2 -26 -4 -13 -7 -18 -19 -16
-37 3 -23 8 -27 41 -30 l37 -3 0 50 c0 39 -4 51 -15 51 -8 0 -15 -7 -15 -17z
m0 -49 c0 -8 -7 -14 -15 -14 -15 0 -21 21 -9 33 10 9 24 -2 24 -19z"/>
<path d="M1760 260 c0 -5 7 -10 15 -10 8 0 15 5 15 10 0 6 -7 10 -15 10 -8 0
-15 -4 -15 -10z"/>
<path d="M595 237 c-27 -20 -16 -61 18 -65 32 -4 37 15 5 21 -20 4 -19 4 5 6
31 1 37 25 8 40 -13 7 -23 6 -36 -2z m30 -17 c3 -5 -1 -10 -10 -10 -9 0 -13 5
-10 10 3 6 8 10 10 10 2 0 7 -4 10 -10z"/>
<path d="M693 242 c-20 -3 -23 -10 -23 -48 0 -24 5 -44 10 -44 6 0 10 4 10 9
0 5 12 11 28 13 21 2 28 9 30 30 4 30 -19 46 -55 40z m32 -31 c7 -12 -12 -24
-25 -16 -11 7 -4 25 10 25 5 0 11 -4 15 -9z"/>
<path d="M1253 242 c-19 -3 -23 -10 -23 -38 0 -19 5 -34 10 -34 6 0 10 11 10
25 0 16 6 25 15 25 9 0 15 -9 15 -25 0 -14 5 -25 10 -25 15 0 12 67 -2 72 -7
2 -23 2 -35 0z"/>
<path d="M1425 236 c-26 -19 -16 -60 16 -64 31 -4 53 20 44 46 -7 25 -39 34
-60 18z m39 -37 c-8 -14 -34 -11 -34 4 0 8 3 17 7 20 9 9 34 -13 27 -24z"/>
<path d="M1533 242 c-19 -3 -23 -10 -23 -38 0 -19 5 -34 10 -34 6 0 10 11 10
25 0 16 6 25 15 25 9 0 15 -9 15 -25 0 -14 5 -25 10 -25 15 0 12 67 -2 72 -7
2 -23 2 -35 0z"/>
<path d="M1615 237 c-27 -20 -16 -61 18 -65 32 -4 37 15 5 21 -20 4 -19 4 5 6
31 1 37 25 8 40 -13 7 -23 6 -36 -2z m30 -17 c3 -5 -1 -10 -10 -10 -9 0 -13 5
-10 10 3 6 8 10 10 10 2 0 7 -4 10 -10z"/>
<path d="M772 208 c3 -29 7 -33 36 -36 31 -3 32 -2 32 32 0 39 -17 50 -22 14
-5 -32 -28 -35 -28 -4 0 14 -5 26 -11 26 -6 0 -9 -14 -7 -32z"/>
<path d="M1000 205 c0 -19 5 -35 10 -35 6 0 10 16 10 35 0 19 -4 35 -10 35 -5
0 -10 -16 -10 -35z"/>
<path d="M1690 220 c0 -11 7 -20 15 -20 8 0 15 -4 15 -10 0 -5 -7 -7 -15 -4
-8 4 -15 1 -15 -5 0 -15 47 -14 56 0 4 7 -4 20 -17 31 -15 11 -18 16 -6 12 9
-3 17 -1 17 5 0 6 -11 11 -25 11 -18 0 -25 -5 -25 -20z"/>
<path d="M1760 205 c0 -19 5 -35 10 -35 6 0 10 16 10 35 0 19 -4 35 -10 35 -5
0 -10 -16 -10 -35z"/>
<path d="M1815 230 c4 -6 10 -8 15 -5 5 3 11 1 15 -5 3 -5 -3 -10 -14 -10 -14
0 -21 -6 -21 -20 0 -16 7 -20 35 -20 28 0 35 4 35 19 0 37 -12 51 -42 51 -17
0 -27 -4 -23 -10z m35 -40 c0 -5 -4 -10 -10 -10 -5 0 -10 5 -10 10 0 6 5 10
10 10 6 0 10 -4 10 -10z"/>
</g>
</svg>
